# xmcd CD database file
#
# Track frame offsets:
#	150
#	12570
#	33558
#	48513
#	69654
#	86406
#	102713
#	124662
#	146736
#
# Disc length: 2137 seconds
#
# Revision: 0
# Processed by: cddbd v1.5.2PL0 Copyright (c) Steve Scherf et al.
# Submitted via: CDex 1.51
#
DISCID=82085709
DTITLE=Howie Bartolo - Juicy Flute
DYEAR=2000
DGENRE=Jazz
TTITLE0=Alpha
TTITLE1=Cactus Dance
TTITLE2=Happy Feet
TTITLE3=Sole Rosso
TTITLE4=Soho Strut
TTITLE5=Heliopolis
TTITLE6=Andy's Groove
TTITLE7=Daddio
TTITLE8=Omega
EXTD=YEAR: 2000
EXTT0=
EXTT1=
EXTT2=
EXTT3=
EXTT4=
EXTT5=
EXTT6=
EXTT7=
EXTT8=
PLAYORDER=
